<?xml version="1.0"?>
<svg xmlns="http://www.w3.org/2000/svg" xmlns:xlink="http://www.w3.org/1999/xlink" version="1.1" id="Capa_1" x="0px" y="0px" viewBox="0 0 305.099 305.099" style="enable-background:new 0 0 305.099 305.099;" xml:space="preserve" width="512px" height="512px" class=""><g><g>
	<path d="M143.599,40.22c-15.92,0-31.664,1.61-46.795,4.788c-1.041,0.219-1.728,1.215-1.564,2.266   c0.164,1.052,1.133,1.78,2.182,1.681c7.529-0.78,15.215-1.176,22.844-1.176c84.008,0,152.355,46.999,152.355,104.769   s-68.348,104.771-152.355,104.771c-7.633,0-15.32-0.396-22.852-1.176c-1.053-0.118-2.018,0.629-2.182,1.681   c-0.164,1.051,0.523,2.047,1.564,2.266c15.135,3.178,30.881,4.789,46.803,4.789c89.051,0,161.5-50.391,161.5-112.33   C305.099,90.611,232.65,40.22,143.599,40.22z" data-original="#000000" class="active-path" data-old_color="#17a2b8" fill="#17a2b8"/>
	<path d="M127.396,180.262c12.363-0.482,23.775-1.398,34.891-2.801c11.018-1.395,19.984-3.031,28.223-5.153   c6.127-1.585,10.961-3.293,15.215-5.375c2.49-1.218,5.338-2.816,7.586-5.439c2.975-3.481,2.904-7.411-0.191-10.783   c-0.781-0.85-1.697-1.646-2.725-2.364c-4.283-3.002-8.99-4.733-13.031-6.031c-11.146-3.583-22.488-5.424-31.125-6.627   c-10.434-1.455-21.225-2.48-32.072-3.047c-6.74-0.352-15.613-0.757-24.461-0.757c-3.891,0-7.502,0.073-11.041,0.224   c-7.564,0.323-14.361,0.855-20.777,1.628c-2.082,0.249-4.158,0.52-6.297,0.799l-2.145,0.275l32.898-41.984   c0.438-0.609,0.496-1.411,0.154-2.078c-0.344-0.667-1.031-1.086-1.779-1.086l-16.395,0.001c-12.109,0-24.215-0.003-36.322-0.02H48   c-0.676,0-1.307,0.342-1.676,0.907c0,0-43.502,61.57-45.031,63.735c-2.122,3.004-1.541,5.672,1.084,8.527   c0.801,0.871,1.734,1.66,2.852,2.412c4.688,3.155,9.941,4.98,14.463,6.35c12.305,3.725,24.961,5.433,34.611,6.504   c10.465,1.163,21.852,1.911,34.809,2.286c6.27,0.184,12.422,0.277,18.287,0.277C114.246,180.642,120.974,180.514,127.396,180.262z    M70.573,157.719c-0.854-0.249-1.44-1.031-1.44-1.92s0.587-1.671,1.44-1.92c12.406-3.618,28.535-5.61,45.415-5.61   s33.009,1.992,45.415,5.61c0.854,0.249,1.44,1.031,1.44,1.92s-0.587,1.671-1.44,1.92c-12.408,3.617-28.537,5.609-45.415,5.609   C99.11,163.329,82.981,161.337,70.573,157.719z" data-original="#000000" class="active-path" data-old_color="#17a2b8" fill="#17a2b8"/>
</g></g> </svg>
